<?xml version="1.0" encoding="UTF-8" standalone="no"?>
<!-- Created with Inkscape (http://www.inkscape.org/) -->

<svg
   xmlns:dc="http://purl.org/dc/elements/1.1/"
   xmlns:cc="http://creativecommons.org/ns#"
   xmlns:rdf="http://www.w3.org/1999/02/22-rdf-syntax-ns#"
   xmlns:svg="http://www.w3.org/2000/svg"
   xmlns="http://www.w3.org/2000/svg"
   xmlns:sodipodi="http://sodipodi.sourceforge.net/DTD/sodipodi-0.dtd"
   xmlns:inkscape="http://www.inkscape.org/namespaces/inkscape"
   width="175"
   height="135"
   viewBox="0 0 175 135"
   id="svg5004"
   version="1.1"
   inkscape:version="0.91 r13725"
   sodipodi:docname="langgeng.svg">
  <defs
     id="defs5006" />
  <sodipodi:namedview
     id="base"
     pagecolor="#ffffff"
     bordercolor="#666666"
     borderopacity="1.0"
     inkscape:pageopacity="0.0"
     inkscape:pageshadow="2"
     inkscape:zoom="5.0154921"
     inkscape:cx="88.257134"
     inkscape:cy="22.156095"
     inkscape:document-units="px"
     inkscape:current-layer="layer4"
     showgrid="false"
     showguides="true"
     inkscape:guide-bbox="true"
     inkscape:window-width="1366"
     inkscape:window-height="705"
     inkscape:window-x="-8"
     inkscape:window-y="-8"
     inkscape:window-maximized="1"
     units="px">
    <sodipodi:guide
       position="122.375,882.12502"
       orientation="0,1"
       id="guide5559" />
    <sodipodi:guide
       position="130.89286,868.39288"
       orientation="1,0"
       id="guide5561" />
    <sodipodi:guide
       position="126.15625,852.93752"
       orientation="0,1"
       id="guide5563" />
    <sodipodi:guide
       position="113.92627,855.15728"
       orientation="0,1"
       id="guide5565" />
    <sodipodi:guide
       position="107.06039,882.88912"
       orientation="1,0"
       id="guide5567" />
    <sodipodi:guide
       position="104.40625,884.19917"
       orientation="1,0"
       id="guide5585" />
    <sodipodi:guide
       position="116.40745,856.12955"
       orientation="0,1"
       id="guide5589" />
    <sodipodi:guide
       position="133.55479,861.96318"
       orientation="1,0"
       id="guide5595" />
    <sodipodi:guide
       position="118.64063,875.93752"
       orientation="1,0"
       id="guide5597" />
    <sodipodi:guide
       position="155.625,875.25002"
       orientation="1,0"
       id="guide5599" />
    <sodipodi:guide
       position="158.022,878.71277"
       orientation="1,0"
       id="guide5603"
       inkscape:label=""
       inkscape:color="rgb(0,0,255)" />
    <sodipodi:guide
       position="182.54404,869.32151"
       orientation="1,0"
       id="guide5615" />
    <sodipodi:guide
       position="94.625,852.93752"
       orientation="0,1"
       id="guide5634" />
    <sodipodi:guide
       position="121.62237,851.13561"
       orientation="0,1"
       id="guide5636" />
    <sodipodi:guide
       position="107.06039,822.01165"
       orientation="0,1"
       id="guide5638" />
    <sodipodi:guide
       position="108.09895,843.75518"
       orientation="1,0"
       id="guide5663" />
    <sodipodi:guide
       position="131.24565,838.3193"
       orientation="0,1"
       id="guide5665" />
    <sodipodi:guide
       position="130.36328,836.20705"
       orientation="0,1"
       id="guide5667" />
    <sodipodi:guide
       position="123.03658,848.08621"
       orientation="0,1"
       id="guide5669" />
    <sodipodi:guide
       position="119.43476,838.69495"
       orientation="1,0"
       id="guide5671" />
    <sodipodi:guide
       position="122.1527,826.82881"
       orientation="0,1"
       id="guide5673" />
    <sodipodi:guide
       position="116.93778,840.83837"
       orientation="1,0"
       id="guide5711" />
    <sodipodi:guide
       position="116.63281,824.85939"
       orientation="0,1"
       id="guide5713" />
  </sodipodi:namedview>
  <metadata
     id="metadata5009">
    <rdf:RDF>
      <cc:Work
         rdf:about="">
        <dc:format>image/svg+xml</dc:format>
        <dc:type
           rdf:resource="http://purl.org/dc/dcmitype/StillImage" />
        <dc:title></dc:title>
      </cc:Work>
    </rdf:RDF>
  </metadata>
  <g
     inkscape:label="Layer 1"
     inkscape:groupmode="layer"
     id="layer1"
     transform="translate(0,-917.36218)" />
  <g
     inkscape:groupmode="layer"
     id="layer4"
     inkscape:label="depan"
     transform="translate(0,-917.36218)">
    <g
       id="g5728"
       transform="matrix(2.1620978,0,0,2.1620978,-222.46913,551.43792)"
       inkscape:export-xdpi="90"
       inkscape:export-ydpi="90">
      <g
         id="text5552"
         style="font-style:normal;font-weight:normal;font-size:40px;line-height:125%;font-family:sans-serif;letter-spacing:0px;word-spacing:0px;fill:#000000;fill-opacity:1;stroke:none;stroke-width:1px;stroke-linecap:butt;stroke-linejoin:miter;stroke-opacity:1">
        <path
           sodipodi:nodetypes="ccccccc"
           inkscape:connector-curvature="0"
           id="path5557"
           style="font-size:45px;fill:#000000;fill-opacity:1;stroke:none;stroke-opacity:1"
           d="m 104.40869,170.23001 2.65849,0.006 -3.9e-4,26.96704 23.82597,0.0352 0.003,2.18346 -26.49206,0.005 z" />
      </g>
      <path
         sodipodi:nodetypes="ccscccccc"
         inkscape:connector-curvature="0"
         id="path5575"
         d="m 118.64303,176.50907 c -3.89949,6.68543 -7.79483,14.11591 -11.58855,20.69568 1.90195,1.9e-4 8.47926,-0.013 14.24233,-0.006 5.09699,0.006 9.58662,0.0276 9.58662,0.0276 -3.41766,-5.51955 -10.04434,-17.12949 -12.2404,-20.71728 z m 7e-5,2.61816 10.01554,17.11032 -19.66981,9.1e-4 z"
         style="color:#000000;font-style:normal;font-variant:normal;font-weight:normal;font-stretch:normal;font-size:medium;line-height:normal;font-family:sans-serif;text-indent:0;text-align:start;text-decoration:none;text-decoration-line:none;text-decoration-style:solid;text-decoration-color:#000000;letter-spacing:normal;word-spacing:normal;text-transform:none;direction:ltr;block-progression:tb;writing-mode:lr-tb;baseline-shift:baseline;text-anchor:start;white-space:normal;clip-rule:nonzero;display:inline;overflow:visible;visibility:visible;opacity:1;isolation:auto;mix-blend-mode:normal;color-interpolation:sRGB;color-interpolation-filters:linearRGB;solid-color:#000000;solid-opacity:1;fill:#ffd71e;fill-opacity:1;fill-rule:nonzero;stroke:none;stroke-width:0.24381819;stroke-linecap:butt;stroke-linejoin:round;stroke-miterlimit:3.29999995;stroke-dasharray:none;stroke-dashoffset:0;stroke-opacity:1;color-rendering:auto;image-rendering:auto;shape-rendering:auto;text-rendering:auto;enable-background:accumulate" />
      <text
         sodipodi:linespacing="125%"
         id="text5591"
         y="199.40338"
         x="129.62151"
         style="font-style:normal;font-weight:normal;font-size:40px;line-height:125%;font-family:sans-serif;letter-spacing:0px;word-spacing:0px;fill:#000000;fill-opacity:1;stroke:none;stroke-width:1px;stroke-linecap:butt;stroke-linejoin:miter;stroke-opacity:1"
         xml:space="preserve"><tspan
           y="199.40338"
           x="129.62151"
           id="tspan5593"
           sodipodi:role="line">N</tspan></text>
      <g
         id="text5605"
         style="font-style:normal;font-weight:normal;font-size:38.41492462px;line-height:125%;font-family:sans-serif;letter-spacing:0px;word-spacing:0px;fill:#000000;fill-opacity:1;stroke:none;stroke-width:1px;stroke-linecap:butt;stroke-linejoin:miter;stroke-opacity:1">
        <path
           sodipodi:nodetypes="cccccccscscscccsscscscc"
           inkscape:connector-curvature="0"
           id="path5613"
           d="m 178.78281,194.82307 0,-7.52167 -6.1899,0 0,-3.11371 9.94136,0 0,12.02342 c -1.46307,1.03791 -3.07619,1.82571 -4.83938,2.36342 -1.76319,0.52521 -3.64517,0.78781 -5.64594,0.78781 -4.3767,0 -7.80303,-1.2755 -10.279,-3.82649 -2.46345,-2.56349 -3.69518,-6.12738 -3.69518,-10.69165 0,-4.57678 1.23173,-8.14067 3.69518,-10.69166 2.47597,-2.56349 5.9023,-3.84524 10.279,-3.84524 1.82571,0 3.55763,0.22509 5.19576,0.67526 1.65065,0.45017 3.91091,1.5224 5.29895,2.39774 l -0.003,3.57268 c -1.40055,-1.18796 -3.62699,-2.03139 -5.2026,-2.63162 -1.57561,-0.60023 -3.23251,-0.90035 -4.97068,-0.90035 -3.42633,0 -6.00233,0.95662 -7.728,2.86986 -1.71317,1.91325 -2.56975,4.76436 -2.56975,8.55333 0,3.77647 0.85658,6.62132 2.56975,8.53456 1.72567,1.91325 4.30167,2.86987 7.728,2.86987 1.33802,0 2.53223,-0.11254 3.58264,-0.33763 1.05041,-0.23759 1.99452,-0.60024 2.83235,-1.08793 z" />
      </g>
      <g
         id="text5640"
         style="font-style:normal;font-weight:normal;font-size:32.6186142px;line-height:125%;font-family:sans-serif;letter-spacing:0px;word-spacing:0px;fill:#ffd71e;fill-opacity:1;stroke:none;stroke-width:1px;stroke-linecap:butt;stroke-linejoin:miter;stroke-opacity:1"
         transform="scale(0.99746943,1.002537)">
        <path
           sodipodi:nodetypes="ccccccccccccc"
           inkscape:connector-curvature="0"
           id="path5661"
           d="m 117.23732,203.77715 13.98561,-0.008 -0.0102,2.08816 -11.47325,0 8e-5,7.6437 11.48727,-0.0153 0.005,2.12284 -11.49253,-0.004 0,9.35492 11.48752,0.006 1.7e-4,1.95754 -13.9803,0.005 z" />
      </g>
      <text
         sodipodi:linespacing="125%"
         id="text5591-7"
         y="230.40192"
         x="129.63887"
         style="font-style:normal;font-weight:normal;font-size:40px;line-height:125%;font-family:sans-serif;letter-spacing:0px;word-spacing:0px;fill:#000000;fill-opacity:1;stroke:none;stroke-width:1px;stroke-linecap:butt;stroke-linejoin:miter;stroke-opacity:1"
         xml:space="preserve"><tspan
           y="230.40192"
           x="129.63887"
           id="tspan5593-4"
           sodipodi:role="line">N</tspan></text>
      <g
         id="text5605-9"
         style="font-style:normal;font-weight:normal;font-size:38.41492462px;line-height:125%;font-family:sans-serif;letter-spacing:0px;word-spacing:0px;fill:#000000;fill-opacity:1;stroke:none;stroke-width:1px;stroke-linecap:butt;stroke-linejoin:miter;stroke-opacity:1"
         transform="translate(-0.08588907,30.979727)">
        <path
           sodipodi:nodetypes="cccccccscscscccsscscscc"
           inkscape:connector-curvature="0"
           id="path5613-4"
           d="m 178.78281,194.82307 0,-7.52167 -6.1899,0 0,-3.11371 9.94136,0 0,12.02342 c -1.46307,1.03791 -3.07619,1.82571 -4.83938,2.36342 -1.76319,0.52521 -3.64517,0.78781 -5.64594,0.78781 -4.3767,0 -7.80303,-1.2755 -10.279,-3.82649 -2.46345,-2.56349 -3.69518,-6.12738 -3.69518,-10.69165 0,-4.57678 1.23173,-8.14067 3.69518,-10.69166 2.47597,-2.56349 5.9023,-3.84524 10.279,-3.84524 1.82571,0 3.55763,0.22509 5.19576,0.67526 1.65065,0.45017 3.91091,1.5224 5.29895,2.39774 l -0.003,3.57268 c -1.40055,-1.18796 -3.62699,-2.03139 -5.2026,-2.63162 -1.57561,-0.60023 -3.23251,-0.90035 -4.97068,-0.90035 -3.42633,0 -6.00233,0.95662 -7.728,2.86986 -1.71317,1.91325 -2.56975,4.76436 -2.56975,8.55333 0,3.77647 0.85658,6.62132 2.56975,8.53456 1.72567,1.91325 4.30167,2.86987 7.728,2.86987 1.33802,0 2.53223,-0.11254 3.58264,-0.33763 1.05041,-0.23759 1.99452,-0.60024 2.83235,-1.08793 z" />
      </g>
      <path
         sodipodi:nodetypes="cccccccscscscccsscscscc"
         inkscape:connector-curvature="0"
         id="path5613-9"
         d="m 125.12411,225.79894 0,-7.52167 -6.1899,0 0,-3.11371 9.94136,0 0,12.02342 c -1.46307,1.03791 -3.07619,1.82571 -4.83938,2.36342 -1.76319,0.52521 -3.64517,0.78781 -5.64594,0.78781 -4.3767,0 -7.80303,-1.2755 -10.279,-3.82649 -2.46345,-2.56349 -3.69518,-6.12738 -3.69518,-10.69165 0,-4.57678 1.23173,-8.14067 3.69518,-10.69166 2.47597,-2.56349 5.9023,-3.84524 10.279,-3.84524 1.82571,0 3.55763,0.22509 5.19576,0.67526 1.65065,0.45017 3.91091,1.5224 5.29895,2.39774 l -0.003,3.57268 c -1.40055,-1.18796 -3.62699,-2.03139 -5.2026,-2.63162 -1.57561,-0.60023 -3.23251,-0.90035 -4.97068,-0.90035 -3.42633,0 -6.00233,0.95662 -7.728,2.86986 -1.71317,1.91325 -2.56975,4.76436 -2.56975,8.55333 0,3.77647 0.85658,6.62132 2.56975,8.53456 1.72567,1.91325 4.30167,2.86987 7.728,2.86987 1.33802,0 2.53223,-0.11254 3.58264,-0.33763 1.05041,-0.23759 1.99452,-0.60024 2.83235,-1.08793 z"
         style="font-style:normal;font-weight:normal;font-size:38.41492462px;line-height:125%;font-family:sans-serif;letter-spacing:0px;word-spacing:0px;fill:#000000;fill-opacity:1;stroke:none;stroke-width:1px;stroke-linecap:butt;stroke-linejoin:miter;stroke-opacity:1" />
    </g>
  </g>
</svg>
